<svg fill="none" height="24" viewBox="0 0 24 24" width="24" xmlns="http://www.w3.org/2000/svg"><g stroke="#292d32" stroke-linecap="round" stroke-linejoin="round" stroke-width="1.5"><path d="m13.43 15h-9.03c-1.82 0-2.98-1.95-2.1-3.55l2.33-4.24006 2.18-3.97c.91-1.65 3.29-1.65 4.2 0l2.19 3.97 1.05 1.91001 1.28 2.33005c.88 1.6-.28 3.55-2.1 3.55z"/><path d="m22 15.5c0 3.59-2.91 6.5-6.5 6.5s-6.5-2.91-6.5-6.5c0-.17.01-.33.02-.5h4.41c1.82 0 2.98-1.95 2.1-3.55l-1.28-2.33c.4-.08.82-.12 1.25-.12 3.59 0 6.5 2.91 6.5 6.5z"/></g></svg>